<mxfile host="app.diagrams.net" modified="2022-04-11T08:14:26.801Z" agent="5.0 (Windows NT 10.0; Win64; x64) AppleWebKit/537.36 (KHTML, like Gecko) Chrome/100.0.4896.75 Safari/537.36" etag="Yb0NCEBD7Q8DqiTD05Td" version="17.4.2" type="github">
  <diagram id="kln5DqLNQkuSyo0Sze6k" name="第 1 页">
    <mxGraphModel dx="782" dy="1605" grid="1" gridSize="10" guides="1" tooltips="1" connect="1" arrows="1" fold="1" page="1" pageScale="1" pageWidth="827" pageHeight="1169" math="0" shadow="0">
      <root>
        <mxCell id="0" />
        <mxCell id="1" parent="0" />
        <mxCell id="uUToXS9LVPpgQq9qgQU2-3" value="" style="edgeStyle=orthogonalEdgeStyle;rounded=0;orthogonalLoop=1;jettySize=auto;html=1;" edge="1" parent="1" source="uUToXS9LVPpgQq9qgQU2-1" target="uUToXS9LVPpgQq9qgQU2-2">
          <mxGeometry relative="1" as="geometry">
            <Array as="points">
              <mxPoint x="310" y="120" />
              <mxPoint x="310" y="120" />
            </Array>
          </mxGeometry>
        </mxCell>
        <mxCell id="uUToXS9LVPpgQq9qgQU2-22" value="2、通过处理器映射器&lt;br&gt;查找合适的处理器" style="edgeLabel;html=1;align=center;verticalAlign=middle;resizable=0;points=[];" vertex="1" connectable="0" parent="uUToXS9LVPpgQq9qgQU2-3">
          <mxGeometry x="0.1879" y="3" relative="1" as="geometry">
            <mxPoint as="offset" />
          </mxGeometry>
        </mxCell>
        <mxCell id="uUToXS9LVPpgQq9qgQU2-6" value="" style="edgeStyle=orthogonalEdgeStyle;rounded=0;orthogonalLoop=1;jettySize=auto;html=1;" edge="1" parent="1" source="uUToXS9LVPpgQq9qgQU2-1" target="uUToXS9LVPpgQq9qgQU2-5">
          <mxGeometry relative="1" as="geometry">
            <Array as="points">
              <mxPoint x="490" y="170" />
              <mxPoint x="490" y="170" />
            </Array>
          </mxGeometry>
        </mxCell>
        <mxCell id="uUToXS9LVPpgQq9qgQU2-34" value="4、处理器适配器" style="edgeLabel;html=1;align=center;verticalAlign=middle;resizable=0;points=[];" vertex="1" connectable="0" parent="uUToXS9LVPpgQq9qgQU2-6">
          <mxGeometry x="-0.3511" y="4" relative="1" as="geometry">
            <mxPoint x="21" as="offset" />
          </mxGeometry>
        </mxCell>
        <mxCell id="uUToXS9LVPpgQq9qgQU2-10" value="" style="edgeStyle=orthogonalEdgeStyle;rounded=0;orthogonalLoop=1;jettySize=auto;html=1;" edge="1" parent="1" source="uUToXS9LVPpgQq9qgQU2-1" target="uUToXS9LVPpgQq9qgQU2-9">
          <mxGeometry relative="1" as="geometry" />
        </mxCell>
        <mxCell id="uUToXS9LVPpgQq9qgQU2-19" value="1、发起请求" style="edgeLabel;html=1;align=center;verticalAlign=middle;resizable=0;points=[];" vertex="1" connectable="0" parent="uUToXS9LVPpgQq9qgQU2-10">
          <mxGeometry x="0.3444" y="3" relative="1" as="geometry">
            <mxPoint x="18" y="-3" as="offset" />
          </mxGeometry>
        </mxCell>
        <mxCell id="uUToXS9LVPpgQq9qgQU2-31" style="edgeStyle=none;rounded=0;orthogonalLoop=1;jettySize=auto;html=1;entryX=0.25;entryY=0;entryDx=0;entryDy=0;exitX=0.25;exitY=1;exitDx=0;exitDy=0;" edge="1" parent="1" source="uUToXS9LVPpgQq9qgQU2-1" target="uUToXS9LVPpgQq9qgQU2-11">
          <mxGeometry relative="1" as="geometry" />
        </mxCell>
        <mxCell id="uUToXS9LVPpgQq9qgQU2-39" value="8、视图解析" style="edgeLabel;html=1;align=center;verticalAlign=middle;resizable=0;points=[];" vertex="1" connectable="0" parent="uUToXS9LVPpgQq9qgQU2-31">
          <mxGeometry x="-0.3" y="4" relative="1" as="geometry">
            <mxPoint as="offset" />
          </mxGeometry>
        </mxCell>
        <mxCell id="uUToXS9LVPpgQq9qgQU2-33" style="edgeStyle=none;rounded=0;orthogonalLoop=1;jettySize=auto;html=1;entryX=1;entryY=0;entryDx=0;entryDy=0;" edge="1" parent="1" source="uUToXS9LVPpgQq9qgQU2-1" target="uUToXS9LVPpgQq9qgQU2-13">
          <mxGeometry relative="1" as="geometry" />
        </mxCell>
        <mxCell id="uUToXS9LVPpgQq9qgQU2-41" value="10、将model中数据填充到view中渲染视图" style="edgeLabel;html=1;align=center;verticalAlign=middle;resizable=0;points=[];" vertex="1" connectable="0" parent="uUToXS9LVPpgQq9qgQU2-33">
          <mxGeometry x="0.5425" y="3" relative="1" as="geometry">
            <mxPoint y="1" as="offset" />
          </mxGeometry>
        </mxCell>
        <mxCell id="uUToXS9LVPpgQq9qgQU2-1" value="DispatherServlet&lt;br&gt;前端控制器" style="rounded=0;whiteSpace=wrap;html=1;" vertex="1" parent="1">
          <mxGeometry x="270" y="160" width="210" height="70" as="geometry" />
        </mxCell>
        <mxCell id="uUToXS9LVPpgQq9qgQU2-4" style="edgeStyle=orthogonalEdgeStyle;rounded=0;orthogonalLoop=1;jettySize=auto;html=1;" edge="1" parent="1" source="uUToXS9LVPpgQq9qgQU2-2">
          <mxGeometry relative="1" as="geometry">
            <mxPoint x="440" y="160" as="targetPoint" />
            <Array as="points">
              <mxPoint x="440" y="160" />
            </Array>
          </mxGeometry>
        </mxCell>
        <mxCell id="uUToXS9LVPpgQq9qgQU2-23" value="3、返回处理器映射器" style="edgeLabel;html=1;align=center;verticalAlign=middle;resizable=0;points=[];" vertex="1" connectable="0" parent="uUToXS9LVPpgQq9qgQU2-4">
          <mxGeometry x="-0.2667" y="-3" relative="1" as="geometry">
            <mxPoint x="8" as="offset" />
          </mxGeometry>
        </mxCell>
        <mxCell id="uUToXS9LVPpgQq9qgQU2-2" value="HandlerMapping&lt;br&gt;处理器映射" style="whiteSpace=wrap;html=1;rounded=0;" vertex="1" parent="1">
          <mxGeometry x="280" y="-110" width="240" height="60" as="geometry" />
        </mxCell>
        <mxCell id="uUToXS9LVPpgQq9qgQU2-16" style="rounded=0;orthogonalLoop=1;jettySize=auto;html=1;exitX=0;exitY=0.75;exitDx=0;exitDy=0;entryX=1;entryY=0.75;entryDx=0;entryDy=0;" edge="1" parent="1" source="uUToXS9LVPpgQq9qgQU2-5" target="uUToXS9LVPpgQq9qgQU2-1">
          <mxGeometry relative="1" as="geometry">
            <mxPoint x="450" y="205" as="targetPoint" />
          </mxGeometry>
        </mxCell>
        <mxCell id="uUToXS9LVPpgQq9qgQU2-38" value="7、返回对象" style="edgeLabel;html=1;align=center;verticalAlign=middle;resizable=0;points=[];" vertex="1" connectable="0" parent="uUToXS9LVPpgQq9qgQU2-16">
          <mxGeometry x="0.2716" y="2" relative="1" as="geometry">
            <mxPoint as="offset" />
          </mxGeometry>
        </mxCell>
        <mxCell id="uUToXS9LVPpgQq9qgQU2-29" style="edgeStyle=none;rounded=0;orthogonalLoop=1;jettySize=auto;html=1;entryX=0.25;entryY=0;entryDx=0;entryDy=0;exitX=0.25;exitY=1;exitDx=0;exitDy=0;" edge="1" parent="1" source="uUToXS9LVPpgQq9qgQU2-5" target="uUToXS9LVPpgQq9qgQU2-7">
          <mxGeometry relative="1" as="geometry" />
        </mxCell>
        <mxCell id="uUToXS9LVPpgQq9qgQU2-36" value="5、执行处理器方法" style="edgeLabel;html=1;align=center;verticalAlign=middle;resizable=0;points=[];" vertex="1" connectable="0" parent="uUToXS9LVPpgQq9qgQU2-29">
          <mxGeometry x="-0.2239" relative="1" as="geometry">
            <mxPoint as="offset" />
          </mxGeometry>
        </mxCell>
        <mxCell id="uUToXS9LVPpgQq9qgQU2-5" value="HandlerAdapter&lt;br&gt;处理器适配器" style="whiteSpace=wrap;html=1;rounded=0;" vertex="1" parent="1">
          <mxGeometry x="630" y="150" width="170" height="80" as="geometry" />
        </mxCell>
        <mxCell id="uUToXS9LVPpgQq9qgQU2-30" style="edgeStyle=none;rounded=0;orthogonalLoop=1;jettySize=auto;html=1;entryX=0.75;entryY=1;entryDx=0;entryDy=0;exitX=0.75;exitY=0;exitDx=0;exitDy=0;" edge="1" parent="1" source="uUToXS9LVPpgQq9qgQU2-7" target="uUToXS9LVPpgQq9qgQU2-5">
          <mxGeometry relative="1" as="geometry" />
        </mxCell>
        <mxCell id="uUToXS9LVPpgQq9qgQU2-37" value="6、返回&lt;br&gt;ModelAndView对象" style="edgeLabel;html=1;align=center;verticalAlign=middle;resizable=0;points=[];" vertex="1" connectable="0" parent="uUToXS9LVPpgQq9qgQU2-30">
          <mxGeometry x="0.2655" y="-2" relative="1" as="geometry">
            <mxPoint x="29" as="offset" />
          </mxGeometry>
        </mxCell>
        <mxCell id="uUToXS9LVPpgQq9qgQU2-7" value="Handler&lt;br&gt;处理器" style="whiteSpace=wrap;html=1;rounded=0;" vertex="1" parent="1">
          <mxGeometry x="620" y="370" width="190" height="60" as="geometry" />
        </mxCell>
        <mxCell id="uUToXS9LVPpgQq9qgQU2-9" value="客户端" style="whiteSpace=wrap;html=1;rounded=0;" vertex="1" parent="1">
          <mxGeometry x="30" y="160" width="120" height="60" as="geometry" />
        </mxCell>
        <mxCell id="uUToXS9LVPpgQq9qgQU2-32" style="edgeStyle=none;rounded=0;orthogonalLoop=1;jettySize=auto;html=1;entryX=0.75;entryY=1;entryDx=0;entryDy=0;exitX=0.75;exitY=0;exitDx=0;exitDy=0;" edge="1" parent="1" source="uUToXS9LVPpgQq9qgQU2-11" target="uUToXS9LVPpgQq9qgQU2-1">
          <mxGeometry relative="1" as="geometry" />
        </mxCell>
        <mxCell id="uUToXS9LVPpgQq9qgQU2-40" value="9、返回view对象" style="edgeLabel;html=1;align=center;verticalAlign=middle;resizable=0;points=[];" vertex="1" connectable="0" parent="uUToXS9LVPpgQq9qgQU2-32">
          <mxGeometry x="0.2714" y="-3" relative="1" as="geometry">
            <mxPoint as="offset" />
          </mxGeometry>
        </mxCell>
        <mxCell id="uUToXS9LVPpgQq9qgQU2-11" value="视图解析器&lt;br&gt;ViewResolver" style="whiteSpace=wrap;html=1;rounded=0;" vertex="1" parent="1">
          <mxGeometry x="270" y="370" width="210" height="60" as="geometry" />
        </mxCell>
        <mxCell id="uUToXS9LVPpgQq9qgQU2-42" style="edgeStyle=none;rounded=0;orthogonalLoop=1;jettySize=auto;html=1;entryX=0.25;entryY=1;entryDx=0;entryDy=0;" edge="1" parent="1" source="uUToXS9LVPpgQq9qgQU2-13" target="uUToXS9LVPpgQq9qgQU2-9">
          <mxGeometry relative="1" as="geometry" />
        </mxCell>
        <mxCell id="uUToXS9LVPpgQq9qgQU2-43" value="返回响应" style="edgeLabel;html=1;align=center;verticalAlign=middle;resizable=0;points=[];" vertex="1" connectable="0" parent="uUToXS9LVPpgQq9qgQU2-42">
          <mxGeometry x="0.2575" relative="1" as="geometry">
            <mxPoint as="offset" />
          </mxGeometry>
        </mxCell>
        <mxCell id="uUToXS9LVPpgQq9qgQU2-13" value="视图" style="whiteSpace=wrap;html=1;rounded=0;" vertex="1" parent="1">
          <mxGeometry x="10" y="360" width="120" height="60" as="geometry" />
        </mxCell>
      </root>
    </mxGraphModel>
  </diagram>
</mxfile>
